<?xml version="1.0" standalone="no"?>
<!DOCTYPE svg PUBLIC "-//W3C//DTD SVG 20010904//EN"
 "http://www.w3.org/TR/2001/REC-SVG-20010904/DTD/svg10.dtd">
<svg version="1.0" xmlns="http://www.w3.org/2000/svg"
 width="100.000000pt" height="100.000000pt" viewBox="0 0 100.000000 100.000000"
 preserveAspectRatio="xMidYMid meet">

<g transform="translate(0.000000,100.000000) scale(0.100000,-0.100000)"
fill="#000000" stroke="none">
<path d="M322 690 c-21 -19 -22 -30 -22 -158 0 -152 -4 -177 -28 -186 -38 -14
-72 -38 -71 -49 0 -9 2 -9 6 1 2 6 13 12 23 12 10 0 21 7 24 16 4 10 13 13 26
9 15 -5 20 -2 20 14 0 22 28 35 54 25 9 -3 16 -12 16 -20 0 -8 6 -11 16 -7 12
5 9 10 -15 25 l-31 20 0 129 c0 115 2 129 19 138 10 6 85 11 167 12 192 1 184
9 178 -173 -6 -165 -8 -176 -40 -188 -34 -13 -170 -13 -195 0 -35 19 -23 40
24 41 52 1 39 6 -31 12 -49 4 -51 3 -37 -13 8 -9 15 -21 15 -27 0 -6 7 -14 16
-17 9 -3 14 -15 12 -28 -2 -17 -12 -25 -38 -29 l-35 -6 32 -2 c17 0 35 4 38 9
3 6 48 10 99 10 103 0 151 12 167 41 6 12 9 92 8 202 l-2 182 -29 12 c-20 9
-86 13 -197 13 -154 0 -169 -2 -189 -20z"/>
<path d="M782 668 c15 -15 32 -21 51 -19 15 1 36 -3 45 -11 15 -12 16 -11 3 5
-11 13 -25 18 -47 15 -23 -3 -35 1 -43 14 -6 10 -16 18 -21 18 -6 0 0 -10 12
-22z"/>
<path d="M890 613 c0 -5 9 -18 20 -28 11 -10 20 -16 20 -13 0 3 -9 15 -20 28
-11 13 -20 19 -20 13z"/>
<path d="M523 603 c15 -2 37 -2 50 0 12 2 0 4 -28 4 -27 0 -38 -2 -22 -4z"/>
<path d="M481 543 c-1 -55 -3 -62 -23 -67 -13 -3 11 -3 52 -1 75 4 108 -4 96
-23 -7 -12 -46 -4 -46 9 0 5 -4 9 -10 9 -5 0 -7 -7 -4 -15 4 -10 0 -15 -12
-15 -18 -1 -18 -1 -1 -11 33 -19 17 -29 -47 -29 -36 0 -67 -4 -70 -8 -3 -5 23
-6 56 -4 51 4 64 2 75 -14 12 -16 13 -16 13 -1 0 12 8 17 28 17 22 0 24 -2 12
-11 -13 -9 -13 -10 0 -6 12 3 15 25 16 118 1 63 -1 106 -3 97 -7 -26 -119 -26
-126 0 -3 9 -5 -11 -6 -45z m129 2 c0 -12 -13 -15 -60 -15 -47 0 -60 3 -60 15
0 12 13 15 60 15 47 0 60 -3 60 -15z m-2 -42 c3 -10 -13 -13 -57 -13 -57 0
-71 6 -54 24 12 12 106 2 111 -11z m-9 -73 c4 0 8 -7 8 -15 0 -9 -10 -15 -24
-15 -17 0 -23 6 -23 21 0 15 4 19 16 15 9 -3 19 -6 23 -6z"/>
<path d="M528 543 c12 -2 32 -2 45 0 12 2 2 4 -23 4 -25 0 -35 -2 -22 -4z"/>
<path d="M538 503 c6 -2 18 -2 25 0 6 3 1 5 -13 5 -14 0 -19 -2 -12 -5z"/>
<path d="M523 583 c15 -2 39 -2 55 0 15 2 2 4 -28 4 -30 0 -43 -2 -27 -4z"/>
<path d="M911 526 c-9 -10 -37 -16 -84 -19 l-72 -3 71 -2 c47 -1 76 3 90 12
10 8 16 17 13 20 -3 4 -12 0 -18 -8z"/>
<path d="M429 457 c4 -5 32 -7 62 -5 l54 3 -62 5 c-34 3 -58 1 -54 -3z"/>
<path d="M415 430 c-8 -13 5 -13 25 0 13 8 13 10 -2 10 -9 0 -20 -4 -23 -10z"/>
<path d="M463 413 c15 -2 37 -2 50 0 12 2 0 4 -28 4 -27 0 -38 -2 -22 -4z"/>
<path d="M478 373 c6 -2 18 -2 25 0 6 3 1 5 -13 5 -14 0 -19 -2 -12 -5z"/>
<path d="M200 262 c0 -16 38 -24 91 -19 42 3 41 4 -11 5 -31 1 -61 7 -68 14
-9 9 -12 9 -12 0z"/>
</g>
</svg>
